<svg id="Layer_1" data-name="Layer 1" xmlns="http://www.w3.org/2000/svg" viewBox="0 0 1280 720"><defs><style>.cls-1{fill:#e6e6e6;}.cls-2{fill:#666;}</style></defs><rect class="cls-1" width="1280" height="720"/><path class="cls-2" d="M640,265.83q66.51,0,133,0c1.79,0,2.41.31,2.41,2.29q-.09,83.7,0,167.4c0,5.47-.1,10.95.06,16.43.05,2-.61,2.3-2.41,2.3q-60.35-.07-120.69,0-72.68,0-145.35,0c-1.78,0-2.41-.3-2.41-2.29q.09-84.92.06-169.82,0-6.92,0-13.83c0-2.44,0-2.44,2.54-2.44Zm124,131.71.44-.21V395.5q0-58.29,0-116.58c0-1.87-.62-2.21-2.34-2.21-15.63.07-31.25,0-46.88,0H561.07c-14.51,0-29,0-43.53,0-1.38,0-2,.24-2,1.82q.06,75.29,0,150.58c0,.35-.29.88.45,1.11l.9-1.12q38.7-49.39,77.39-98.82c1.07-1.37,1.47-1.22,2.44.07q34.31,45.94,68.67,91.84c.86,1.15,1.29,1.4,2.39.16q27.46-30.83,55-61.6c1.11-1.24,1.65-1.08,2.72,0q16.53,16,33.15,31.83Z"/><path class="cls-2" d="M710,323.69a18.72,18.72,0,1,1-18.65-18.89A18.72,18.72,0,0,1,710,323.69Z"/></svg>