<?xml version="1.0" encoding="utf-8"?>
<!-- Generator: Adobe Illustrator 25.0.0, SVG Export Plug-In . SVG Version: 6.00 Build 0)  -->
<svg version="1.1" id="Layer_1" xmlns="http://www.w3.org/2000/svg" xmlns:xlink="http://www.w3.org/1999/xlink" x="0px" y="0px"
	 viewBox="0 0 535.8 109.2" style="enable-background:new 0 0 535.8 109.2;" xml:space="preserve">
<style type="text/css">
	.st0{fill:#FFFFFF;}
	.st1{fill:none;stroke:#000000;stroke-width:2.6;stroke-miterlimit:10;}
	.st2{fill:none;stroke:#000000;stroke-width:2.6;stroke-miterlimit:10;stroke-dasharray:26.8,13.4;}
	.st3{fill:#16A34A;}
	.st4{fill:none;stroke:#16A34A;stroke-miterlimit:10;}
</style>
<path class="st0" d="M2.3,103.9c15.5-13.6,40-30.4,73-33.7c51.2-5.2,70,27.8,129,28.5c58.5,0.6,65.1-31.4,121.5-29.3
	c55.1,2.1,69.9,33.5,121,32.7c37.9-0.5,68-18.4,86.6-32.1"/>
<path class="st1" d="M2.3,103.9c3-2.7,6.4-5.4,10.1-8.2"/>
<path class="st2" d="M23.4,88.1c15.7-9.9,33.4-16,51.9-18c51.2-5.2,70,27.8,129,28.5c58.5,0.6,65.1-31.4,121.5-29.3
	c55.1,2.1,69.9,33.5,121,32.7c28.2-0.4,52.2-10.4,70.2-21.2"/>
<path class="st1" d="M522.7,77.3c3.9-2.5,7.4-5,10.7-7.4"/>
<path class="st3" d="M340.7,30.4c0.4,0.3,0.6,0.8,0.5,1.2c-0.5,2.3-1,4.5-1.5,6.8c-0.9,4.4-1.9,8.8-2.8,13.2
	c-0.8,3.9-1.7,7.8-2.5,11.7c-0.1,0.6-0.5,1-1.1,1.1l-1.2,0.2l-27.6,4.1L275.7,73c-0.7,0.2-1.4-0.1-1.7-0.8c0,0,0,0,0,0l-7.7-14
	l-6.7-12l-1.2-2.2c-0.3-0.4-0.2-1,0.1-1.3c0.3-0.4,0.8-0.5,1.3-0.3l15.4,4.2l5.7,1.6c0.4,0.1,0.4,0.1,0.6-0.3l4.5-9.1l5.6-11.3
	c1.4-2.8,2.8-5.6,4.2-8.4c0.2-0.4,0.3-0.9,0.1-1.4c-0.2-1.8-0.5-3.6-0.6-5.4c-0.2-1.6-0.4-3.2-0.6-4.8s-0.4-2.9-0.5-4.4
	c-0.1-0.7-0.2-1.3-0.2-2c0-0.2,0-0.4,0.3-0.4c0.5,0,1.1-0.1,1.6-0.2c0.2,0,0.3,0.1,0.3,0.3c0.1,1.1,0.3,2.1,0.4,3.2
	c0.1,0.6,0.1,0.6,0.6,0.5l12.8-1.9l0.4,0c0.6-0.1,1.2,0.3,1.4,0.9c0,0.1,0,0.1,0,0.2c0.4,2.8,0.8,5.6,1.2,8.4
	c0.2,0.6-0.2,1.2-0.7,1.4c-0.1,0-0.2,0-0.3,0l-13.6,2c-0.4,0.1-0.4,0.1-0.4,0.5c0.1,0.7,0.2,1.3,0.2,2c0,0.2,0.1,0.3,0.2,0.5
	l7.5,8.3l8.1,9c2,2.2,4,4.4,6,6.6c0.1,0.1,0.3,0.2,0.4,0.1c0,0,0,0,0.1-0.1l5-3.1l9.5-6l4.4-2.8C339.7,30.2,340.3,30.2,340.7,30.4z
	 M338.3,34.1c0-0.1,0.1-0.2,0-0.2s-0.2,0-0.2,0.1l-0.8,0.5l-10.1,6.3l-2.6,1.7c-0.9,0.5-1.7,1.1-2.6,1.6s-1.6,1.2-2.6,1.7
	c-0.8,0.5-1.7,1-2.4,1.5l-10.6,6.7l-1.2,0.8c0.1,0,0.1,0.1,0.1,0.1l10.1,2.8l9.5,2.6c2.4,0.6,4.8,1.3,7.1,2c0.3,0.1,0.3,0,0.4-0.2
	c0.3-1.3,0.6-2.6,0.8-4c0.6-2.7,1.2-5.4,1.8-8.1c0.8-3.8,1.6-7.5,2.4-11.3C337.7,37,338,35.5,338.3,34.1L338.3,34.1z M326.7,63.1
	c0.1,0,0.2,0,0.3-0.1l-1.9-0.5c-3.3-0.9-6.6-1.8-9.9-2.7l-9.8-2.7l-10.9-3L283,51c-0.6-0.1-1.2-0.3-1.8-0.5
	c-0.8-0.3-1.7-0.5-2.5-0.7l-9.8-2.7l-7-1.9c-0.1,0-0.2-0.1-0.3,0s0,0.2,0.1,0.3c1,1.9,2.1,3.8,3.1,5.6c1.9,3.4,3.8,6.8,5.6,10.2
	c1.7,3,3.4,6,5,9.1c0.1,0.2,0.3,0.4,0.6,0.3C293,68.2,309.9,65.7,326.7,63.1L326.7,63.1z M317.9,44c0.3-0.2,0.3-0.2,0.1-0.4
	l-4.6-5.1l-6.7-7.5l-7.1-7.9l-0.7-0.8c0,0.2,0,0.3,0,0.4c0.1,0.7,0.2,1.5,0.4,2.2c0.2,1.2,0.4,2.4,0.6,3.6s0.4,2.5,0.6,3.7
	s0.4,2.4,0.6,3.6c0.3,1.5,0.4,3,0.7,4.4c0.2,1.2,0.4,2.4,0.6,3.6c0.2,1.4,0.4,2.8,0.7,4.1s0.5,3,0.7,4.5c0,0.2,0.1,0.3,0.3,0.2
	c1.7-1.1,3.3-2.1,5-3.1L317.9,44z M310.2,11.4c0.4-0.1,0.4-0.1,0.3-0.5c-0.3-1.9-0.6-3.8-0.9-5.8c-0.1-0.4-0.1-0.4-0.5-0.3l-5.9,0.9
	c-2,0.3-4,0.6-6,0.9c-0.3,0-0.4,0.1-0.3,0.4c0.3,1.9,0.6,3.9,0.9,5.8c0,0.3,0.1,0.4,0.4,0.3C302.3,12.6,306.3,12,310.2,11.4z
	 M300.9,53.5c0.2,0.1,0.3,0.1,0.3-0.2c0,0,0-0.1,0-0.1L297,25.1c-0.1-0.9-0.3-1.8-0.4-2.7h-0.1c0,0-0.1,0.1-0.1,0.1
	c-1.8,3.7-3.7,7.4-5.5,11.1c-1.4,2.8-2.7,5.5-4.1,8.3c-1.1,2.2-2.2,4.4-3.2,6.5c-0.1,0.2-0.1,0.3,0.2,0.4l4.7,1.3l8.5,2.3
	L300.9,53.5z"/>
<path class="st0" d="M338.3,33.9c0.1,0.1,0,0.2,0,0.2c-0.3,1.5-0.6,2.9-0.9,4.4c-0.8,3.8-1.6,7.5-2.4,11.3c-0.6,2.7-1.2,5.4-1.8,8.1
	c-0.3,1.3-0.6,2.6-0.8,4c0,0.2-0.1,0.3-0.4,0.2c-2.4-0.7-4.8-1.3-7.1-2l-9.5-2.6l-10.1-2.8c0,0,0,0-0.1-0.1l1.2-0.8l10.6-6.7
	c0.8-0.6,1.6-1.1,2.4-1.5c0.9-0.4,1.7-1.2,2.6-1.7s1.7-1.1,2.6-1.6l2.6-1.6l10.1-6.3l0.8-0.5C338.2,33.9,338.2,33.8,338.3,33.9z"/>
<path class="st0" d="M327,63.1c-0.1,0.1-0.2,0.1-0.3,0.1c-16.9,2.5-33.7,5-50.6,7.5c-0.2,0.1-0.5-0.1-0.6-0.3c-1.7-3-3.3-6-5-9.1
	c-1.9-3.4-3.8-6.8-5.6-10.2c-1-1.9-2.1-3.8-3.1-5.6c0-0.1-0.1-0.2-0.1-0.3s0.2,0,0.3,0l7,1.9l9.8,2.7c0.8,0.2,1.7,0.4,2.5,0.7
	c0.6,0.2,1.2,0.4,1.8,0.5l11.5,3.1l10.9,3l9.8,2.7c3.3,0.9,6.6,1.8,9.9,2.7L327,63.1z"/>
<path class="st0" d="M318,43.5c0.2,0.3,0.2,0.3-0.1,0.4l-8.9,5.6c-1.7,1-3.3,2.1-5,3.1c-0.2,0.1-0.3,0-0.3-0.2
	c-0.2-1.5-0.5-3-0.7-4.5s-0.4-2.8-0.7-4.1c-0.2-1.2-0.4-2.4-0.6-3.6c-0.3-1.5-0.4-3-0.7-4.4c-0.2-1.2-0.4-2.4-0.6-3.6
	s-0.4-2.5-0.6-3.7s-0.4-2.4-0.6-3.6c-0.1-0.7-0.2-1.5-0.4-2.2c0-0.1,0-0.2,0-0.4l0.7,0.8l7.1,7.9l6.7,7.5L318,43.5z"/>
<path class="st3" d="M310.5,11c0.1,0.4,0,0.4-0.3,0.5c-4,0.6-7.9,1.2-11.9,1.8c-0.3,0-0.4,0-0.4-0.3c-0.3-1.9-0.6-3.9-0.9-5.8
	c0-0.3,0-0.4,0.3-0.4c2-0.3,4-0.6,6-0.9l5.9-0.9c0.4-0.1,0.4-0.1,0.5,0.3C310,7.2,310.3,9.1,310.5,11z"/>
<path class="st0" d="M301.2,53.4c0.1,0.3,0,0.3-0.3,0.2l-4-1.1l-8.5-2.3l-4.7-1.3c-0.3-0.1-0.3-0.2-0.2-0.4c1.1-2.2,2.2-4.4,3.2-6.5
	c1.3-2.8,2.7-5.5,4.1-8.3c1.8-3.7,3.7-7.4,5.5-11.1c0-0.1,0-0.1,0.1-0.1h0.1c0.1,0.9,0.3,1.8,0.4,2.7l4.2,28.1
	C301.1,53.2,301.1,53.3,301.2,53.4z"/>
<path class="st4" d="M304.3,68.8L275.7,73c-0.7,0.2-1.4-0.1-1.7-0.8c0,0,0,0,0,0l-7.7-14l-6.7-12l-1.2-2.2c-0.3-0.4-0.2-1,0.1-1.3
	c0.3-0.4,0.8-0.5,1.3-0.3l15.4,4.2l5.7,1.6c0.4,0.1,0.4,0.1,0.6-0.3l4.5-9.1l5.6-11.3c1.4-2.8,2.8-5.6,4.2-8.4
	c0.2-0.4,0.3-0.9,0.1-1.4c-0.2-1.8-0.5-3.6-0.6-5.4c-0.2-1.6-0.4-3.2-0.6-4.8s-0.4-2.9-0.5-4.4c-0.1-0.7-0.2-1.3-0.2-2
	c0-0.2,0-0.4,0.3-0.4c0.5,0,1.1-0.1,1.6-0.2c0.2,0,0.3,0.1,0.3,0.3c0.1,1.1,0.3,2.1,0.4,3.2c0.1,0.6,0.1,0.6,0.6,0.5l12.8-1.9l0.4,0
	c0.6-0.1,1.2,0.3,1.4,0.9c0,0.1,0,0.1,0,0.2c0.4,2.8,0.8,5.6,1.2,8.4c0.2,0.6-0.2,1.2-0.7,1.4c-0.1,0-0.2,0-0.3,0l-13.6,2
	c-0.4,0.1-0.4,0.1-0.4,0.5c0.1,0.7,0.2,1.3,0.2,2c0,0.2,0.1,0.3,0.2,0.5l7.5,8.3l8.1,9c2,2.2,4,4.4,6,6.6c0.1,0.1,0.3,0.2,0.4,0.1
	c0,0,0,0,0.1-0.1l5-3.1l9.5-6l4.4-2.8c0.4-0.3,0.9-0.3,1.3,0c0.4,0.3,0.6,0.8,0.5,1.2c-0.5,2.3-1,4.5-1.5,6.8
	c-0.9,4.4-1.9,8.8-2.8,13.2c-0.8,3.9-1.7,7.8-2.5,11.7c-0.1,0.5-0.6,0.9-1.2,0.9l-1.2,0.2L304.3,68.8z"/>
<path class="st4" d="M327,63.1l-1.9-0.5c-3.3-0.9-6.6-1.8-9.9-2.7l-9.8-2.7l-10.9-3L283,51c-0.6-0.1-1.2-0.3-1.8-0.5
	c-0.8-0.3-1.7-0.5-2.5-0.7l-9.8-2.7l-7-1.9c-0.1,0-0.2-0.1-0.3,0s0,0.2,0.1,0.3c1,1.9,2.1,3.8,3.1,5.6c1.9,3.4,3.8,6.8,5.6,10.2
	c1.7,3,3.4,6,5,9.1c0.1,0.2,0.3,0.4,0.6,0.3c16.9-2.5,33.7-5,50.6-7.5C326.8,63.2,326.9,63.1,327,63.1z"/>
<path class="st4" d="M305.1,54.7c0.1,0,0.1,0.1,0.1,0.1l10.1,2.8l9.5,2.6c2.4,0.6,4.8,1.3,7.1,2c0.3,0.1,0.3,0,0.4-0.2
	c0.3-1.3,0.6-2.6,0.8-4c0.6-2.7,1.2-5.4,1.8-8.1c0.8-3.8,1.6-7.5,2.4-11.3c0.3-1.5,0.6-2.9,0.9-4.4c0-0.1,0.1-0.2,0-0.2
	s-0.2,0-0.2,0.1l-0.8,0.5l-10.1,6.3l-2.6,1.6c-0.9,0.5-1.7,1.1-2.6,1.6s-1.6,1.2-2.6,1.7c-0.8,0.5-1.7,1-2.4,1.5l-10.6,6.7
	L305.1,54.7z"/>
<path class="st4" d="M296.6,22.4L296.6,22.4c-0.1,0-0.1,0.1-0.1,0.1c-1.8,3.7-3.7,7.4-5.5,11.1c-1.4,2.8-2.7,5.5-4.1,8.3
	c-1.1,2.2-2.2,4.4-3.2,6.5c-0.1,0.2-0.1,0.3,0.2,0.4l4.7,1.3l8.5,2.3l4,1.1c0.2,0.1,0.3,0.1,0.3-0.2c0,0,0-0.1,0-0.1L297,25.1
	C296.8,24.2,296.7,23.4,296.6,22.4z"/>
<path class="st4" d="M298.8,22.3c0,0.2,0,0.3,0,0.4c0.1,0.7,0.2,1.5,0.4,2.2c0.2,1.2,0.4,2.4,0.6,3.6s0.4,2.5,0.6,3.7
	s0.4,2.4,0.6,3.6c0.3,1.5,0.4,3,0.7,4.4c0.2,1.2,0.4,2.4,0.6,3.6c0.2,1.4,0.4,2.8,0.7,4.1s0.5,3,0.7,4.5c0,0.2,0.1,0.3,0.3,0.2
	c1.7-1.1,3.3-2.1,5-3.1l8.9-5.6c0.3-0.2,0.3-0.2,0.1-0.4l-4.6-5.1l-6.7-7.5l-7.1-7.9L298.8,22.3z"/>
<path class="st4" d="M303.3,5.8c-2,0.3-4,0.6-6,0.9c-0.3,0-0.4,0.1-0.3,0.4c0.3,1.9,0.6,3.9,0.9,5.8c0,0.3,0.1,0.4,0.4,0.3
	c4-0.6,7.9-1.2,11.9-1.8c0.4-0.1,0.4-0.1,0.3-0.5c-0.3-1.9-0.6-3.8-0.9-5.8c-0.1-0.4-0.1-0.4-0.5-0.3L303.3,5.8z"/>
</svg>
