<?xml version="1.0" encoding="utf-8"?>
<!-- Generator: Adobe Illustrator 25.0.0, SVG Export Plug-In . SVG Version: 6.00 Build 0)  -->
<svg version="1.1" id="Layer_1" xmlns="http://www.w3.org/2000/svg" xmlns:xlink="http://www.w3.org/1999/xlink" x="0px" y="0px"
	 viewBox="0 0 100 100" style="enable-background:new 0 0 100 100;" xml:space="preserve">
<style type="text/css">
	.st0{fill:#16A34A;}
</style>
<path class="st0" d="M0,49.9l2.4-2.4l4.8-4.8l5.3-5.3c0.6-0.6,1.2-1.2,1.9-1.8c0.2-0.2,0.3-0.5,0.3-0.8V15.4c0-0.1,0-0.3,0-0.4
	c0-0.2,0.1-0.3,0.2-0.3c0,0,0.1,0,0.1,0h19.6c0.5,0,0.9-0.2,1.2-0.5c1.3-1.4,2.6-2.7,4-4l6-6.1l3.8-3.7c0.3-0.3,0.4-0.3,0.7,0
	c4.6,4.5,9.1,9.1,13.6,13.6c0.4,0.5,1,0.7,1.7,0.7c6.4,0,12.8,0,19.2,0c0.6,0,0.6,0,0.6,0.6c0,6.4,0,12.9,0,19.4
	c0,0.5,0.2,1,0.6,1.4c3.1,3.1,6.2,6.1,9.2,9.2c1.5,1.5,3,3,4.6,4.6c0.2,0.2,0.3,0.4,0,0.7c-3,3-6.1,6.1-9.1,9.1l-5,4.9
	c-0.2,0.2-0.3,0.5-0.3,0.8c0,6.5,0,13.1,0,19.6c0,0.7,0,0.7-0.6,0.7H65.3c-0.4,0-0.7,0.1-1,0.4c-1.8,1.9-3.7,3.7-5.6,5.6l-5.9,5.9
	c-0.8,0.8-1.6,1.6-2.4,2.4c-0.1,0.1-0.2,0.2-0.2,0.3h-0.3c0-0.1-0.1-0.2-0.2-0.3c-0.8-0.8-1.7-1.6-2.5-2.5l-5.8-5.8
	c-1.9-1.9-3.8-3.8-5.7-5.7c-0.2-0.3-0.6-0.4-0.9-0.4H15.3c-0.7,0-0.7,0-0.7-0.7c0-6.5,0-13,0-19.6c0-0.3-0.1-0.6-0.3-0.8
	c-1.3-1.3-2.7-2.7-4.1-4c-1.5-1.5-3-3-4.5-4.5s-3.2-3.2-4.8-4.8c-0.2-0.3-0.5-0.6-0.9-0.8V49.9z M23.4,68.7V76c0,0.6,0,0.6,0.6,0.6
	h14.5c0.3,0,0.5,0.1,0.7,0.2l10.3,10.3c0.5,0.4,0.5,0.4,0.9,0l2.9-2.9c1.5-1.5,3.1-3.1,4.6-4.6c0.9-0.9,1.9-1.9,2.8-2.8
	c0.1-0.1,0.3-0.2,0.5-0.2h14.8c0.3,0,0.5-0.1,0.5-0.5c0-4.9,0-9.9,0-14.8c0-0.2,0.1-0.3,0.2-0.5c1.6-1.6,3.2-3.1,4.7-4.7l5.8-5.8
	c0.2-0.2,0.2-0.4,0-0.6c-0.5-0.5-1-1-1.6-1.5c-2.9-2.9-5.8-5.8-8.8-8.7c-0.3-0.3-0.4-0.6-0.4-1c0-4.8,0-9.7,0-14.5
	c0-0.6,0-0.6-0.6-0.6H61.5c-0.3,0-0.6-0.1-0.8-0.3l-4.9-4.9c-1.8-1.8-3.6-3.5-5.3-5.3c-0.5-0.4-0.5-0.4-0.9,0l-4.3,4.3
	c-2,2-3.9,3.9-5.9,5.9c-0.2,0.3-0.6,0.4-0.9,0.4H24c-0.6,0-0.6,0-0.6,0.6v14.6c0,0.3-0.1,0.6-0.3,0.8c-1,1-2,2-2.9,2.9L17,45.4
	l-4.2,4.2c-0.4,0.4-0.4,0.4,0,0.8c3.5,3.4,6.9,6.8,10.3,10.2c0.2,0.2,0.3,0.5,0.3,0.8C23.4,63.9,23.4,66.3,23.4,68.7z"/>
<path class="st0" d="M66.7,73.6c-2.1,0-4.2,0-6.3,0c-0.4,0-0.7,0.1-0.9,0.4l-8,8.1c-0.4,0.4-0.8,0.7-1.1,1.1c-0.2,0.2-0.3,0.1-0.5,0
	L46,79.4c-1-1-1.9-2-2.9-3s-1.7-1.7-2.6-2.6c-0.2-0.2-0.5-0.3-0.8-0.3c-4.2,0-8.5,0-12.7,0c-0.7,0-0.7,0-0.7-0.7c0-0.8,0-1.7,0-2.5
	s0-1.5,0-2.2c0-2.5,0-5.1,0-7.6c0-0.6-0.2-1.2-0.7-1.6c-0.8-0.8-1.6-1.6-2.4-2.4c-1-1-2-1.9-2.9-2.9l-3.5-3.5
	c-0.2-0.2-0.1-0.3,0-0.5c0.6-0.6,1.1-1.2,1.7-1.7c1-1,2-2.1,3.1-3.1l4.5-4.5c0.2-0.2,0.3-0.5,0.3-0.8c0-2.6,0-5.3,0-7.9
	c0-0.8,0.1-1.7,0-2.5s0-1.6-0.1-2.4c0-0.5,0-0.6,0.6-0.6c4.2,0,8.4,0,12.6,0c0.4,0,0.8-0.2,1.1-0.5c1.5-1.5,3-3,4.5-4.5l4.5-4.4
	c0.3-0.3,0.4-0.3,0.7,0c2,2,4.1,4,6.1,6.1l2.7,2.7c0.4,0.4,0.9,0.7,1.5,0.7c4.1,0,8.2,0,12.4,0c0.6,0,0.6,0,0.6,0.6v12.8
	c0,0.3,0.1,0.6,0.3,0.8l2.2,2.1c0.7,0.7,1.4,1.4,2,2.1c1,1.1,2.1,2.1,3.2,3.2c0.6,0.6,1.2,1.2,1.8,1.8c0.2,0.2,0.3,0.3,0,0.5
	c-1,1-2,2-3,3l-4.8,4.9L74,59.4c-0.2,0.2-0.4,0.5-0.4,0.8c0,2.5,0,5,0,7.6v5.2c0,0.5,0,0.6-0.6,0.6H66.7z M27.7,65.6L27.7,65.6v6.1
	c0,0.5,0,0.5,0.5,0.5c3.8,0,7.7,0,11.5,0c0.7,0,1.4,0.2,1.8,0.7c2.7,2.7,5.4,5.4,8.1,8.1c0.4,0.4,0.4,0.4,0.8,0
	c2.8-2.8,5.6-5.6,8.4-8.4c0.3-0.3,0.6-0.4,1-0.4h12c0.4,0,0.5-0.1,0.5-0.5c0-1.1,0-2.2,0-3.3v-9c0-0.2,0.1-0.3,0.2-0.4
	c1.5-1.5,3-3,4.5-4.5l4.1-4.1c0.4-0.4,0.4-0.4,0-0.8l-2.7-2.7c-1.9-1.9-3.8-3.8-5.7-5.7c-0.3-0.2-0.4-0.6-0.4-0.9c0-4,0-8,0-12
	c0-0.6,0-0.6-0.6-0.6c-4,0-8.1,0-12.1,0c-0.3,0-0.5-0.1-0.7-0.3c-2.9-2.9-5.8-5.9-8.8-8.8c-0.1-0.1-0.2-0.1-0.3,0
	c-0.5,0.6-1.1,1.1-1.6,1.6l-7.1,7.1c-0.2,0.2-0.5,0.4-0.9,0.4c-4,0-8,0-12,0c-0.6,0-0.6,0-0.6,0.6v12c0,0.3-0.1,0.5-0.2,0.7
	c-0.3,0.3-0.6,0.6-0.9,0.9c-1.4,1.4-2.8,2.8-4.2,4.2l-3.5,3.5c-0.3,0.3-0.3,0.3,0,0.7l8.6,8.5c0.2,0.2,0.3,0.5,0.3,0.8
	C27.7,61.7,27.7,63.7,27.7,65.6L27.7,65.6z"/>
</svg>
